<?xml version="1.0" encoding="UTF-8" standalone="no"?>
<!DOCTYPE svg PUBLIC "-//W3C//DTD SVG 1.1//EN"
 "http://www.w3.org/Graphics/SVG/1.1/DTD/svg11.dtd">
<!-- Generated by graphviz version 13.1.2 (0)
 -->
<!-- Pages: 1 -->
<svg width="914pt" height="353pt"
 viewBox="0.00 0.00 914.00 353.00" xmlns="http://www.w3.org/2000/svg" xmlns:xlink="http://www.w3.org/1999/xlink">
<g id="graph0" class="graph" transform="scale(1 1) rotate(0) translate(4 348.5)">
<polygon fill="white" stroke="none" points="-4,4 -4,-348.5 909.85,-348.5 909.85,4 -4,4"/>
<g id="clust1" class="cluster">
<title>cluster_counties</title>
<polygon fill="none" stroke="black" points="499.85,-188 499.85,-336.5 665.85,-336.5 665.85,-188 499.85,-188"/>
<text xml:space="preserve" text-anchor="middle" x="635.35" y="-195.2" font-family="Times,serif" font-size="14.00">counties</text>
</g>
<!-- mu_alpha -->
<g id="node1" class="node">
<title>mu_alpha</title>
<ellipse fill="white" stroke="black" cx="723.85" cy="-310.5" rx="47.77" ry="18"/>
<text xml:space="preserve" text-anchor="middle" x="723.85" y="-305.45" font-family="Times,serif" font-size="14.00">mu_alpha</text>
</g>
<!-- alpha -->
<g id="node16" class="node">
<title>alpha</title>
<ellipse fill="white" stroke="black" stroke-dasharray="5,2" cx="604.85" cy="-238.5" rx="30.88" ry="18"/>
<text xml:space="preserve" text-anchor="middle" x="604.85" y="-233.45" font-family="Times,serif" font-size="14.00">alpha</text>
</g>
<!-- mu_alpha&#45;&gt;alpha -->
<g id="edge1" class="edge">
<title>mu_alpha&#45;&gt;alpha</title>
<path fill="none" stroke="black" d="M698.9,-294.83C680.56,-284.04 655.52,-269.31 635.89,-257.76"/>
<polygon fill="black" stroke="black" points="637.87,-254.87 627.48,-252.81 634.33,-260.9 637.87,-254.87"/>
</g>
<!-- sigma_alpha -->
<g id="node2" class="node">
<title>sigma_alpha</title>
<ellipse fill="white" stroke="black" cx="847.85" cy="-310.5" rx="58" ry="18"/>
<text xml:space="preserve" text-anchor="middle" x="847.85" y="-305.45" font-family="Times,serif" font-size="14.00">sigma_alpha</text>
</g>
<!-- sigma_alpha&#45;&gt;alpha -->
<g id="edge2" class="edge">
<title>sigma_alpha&#45;&gt;alpha</title>
<path fill="none" stroke="black" d="M806.35,-297.55C760.59,-284.36 687.56,-263.33 643.12,-250.53"/>
<polygon fill="black" stroke="black" points="644.24,-247.21 633.66,-247.8 642.3,-253.93 644.24,-247.21"/>
</g>
<!-- beta_hour -->
<g id="node3" class="node">
<title>beta_hour</title>
<ellipse fill="white" stroke="black" cx="237.85" cy="-310.5" rx="47.77" ry="18"/>
<text xml:space="preserve" text-anchor="middle" x="237.85" y="-305.45" font-family="Times,serif" font-size="14.00">beta_hour</text>
</g>
<!-- hour_component -->
<g id="node6" class="node">
<title>hour_component</title>
<ellipse fill="white" stroke="black" stroke-dasharray="5,2" cx="237.85" cy="-238.5" rx="73.87" ry="18"/>
<text xml:space="preserve" text-anchor="middle" x="237.85" y="-233.45" font-family="Times,serif" font-size="14.00">hour_component</text>
</g>
<!-- beta_hour&#45;&gt;hour_component -->
<g id="edge4" class="edge">
<title>beta_hour&#45;&gt;hour_component</title>
<path fill="none" stroke="black" d="M237.85,-292.2C237.85,-284.91 237.85,-276.23 237.85,-268.04"/>
<polygon fill="black" stroke="black" points="241.35,-268.12 237.85,-258.12 234.35,-268.12 241.35,-268.12"/>
</g>
<!-- beta_month -->
<g id="node4" class="node">
<title>beta_month</title>
<ellipse fill="white" stroke="black" cx="410.85" cy="-310.5" rx="54.93" ry="18"/>
<text xml:space="preserve" text-anchor="middle" x="410.85" y="-305.45" font-family="Times,serif" font-size="14.00">beta_month</text>
</g>
<!-- month_component -->
<g id="node7" class="node">
<title>month_component</title>
<ellipse fill="white" stroke="black" stroke-dasharray="5,2" cx="410.85" cy="-238.5" rx="81.04" ry="18"/>
<text xml:space="preserve" text-anchor="middle" x="410.85" y="-233.45" font-family="Times,serif" font-size="14.00">month_component</text>
</g>
<!-- beta_month&#45;&gt;month_component -->
<g id="edge5" class="edge">
<title>beta_month&#45;&gt;month_component</title>
<path fill="none" stroke="black" d="M410.85,-292.2C410.85,-284.91 410.85,-276.23 410.85,-268.04"/>
<polygon fill="black" stroke="black" points="414.35,-268.12 410.85,-258.12 407.35,-268.12 414.35,-268.12"/>
</g>
<!-- beta_year -->
<g id="node5" class="node">
<title>beta_year</title>
<ellipse fill="white" stroke="black" cx="72.85" cy="-310.5" rx="46.75" ry="18"/>
<text xml:space="preserve" text-anchor="middle" x="72.85" y="-305.45" font-family="Times,serif" font-size="14.00">beta_year</text>
</g>
<!-- year_component -->
<g id="node8" class="node">
<title>year_component</title>
<ellipse fill="white" stroke="black" stroke-dasharray="5,2" cx="72.85" cy="-238.5" rx="72.85" ry="18"/>
<text xml:space="preserve" text-anchor="middle" x="72.85" y="-233.45" font-family="Times,serif" font-size="14.00">year_component</text>
</g>
<!-- beta_year&#45;&gt;year_component -->
<g id="edge6" class="edge">
<title>beta_year&#45;&gt;year_component</title>
<path fill="none" stroke="black" d="M72.85,-292.2C72.85,-284.91 72.85,-276.23 72.85,-268.04"/>
<polygon fill="black" stroke="black" points="76.35,-268.12 72.85,-258.12 69.35,-268.12 76.35,-268.12"/>
</g>
<!-- temporal_component -->
<g id="node9" class="node">
<title>temporal_component</title>
<ellipse fill="white" stroke="black" stroke-dasharray="5,2" cx="315.85" cy="-162" rx="90.25" ry="18"/>
<text xml:space="preserve" text-anchor="middle" x="315.85" y="-156.95" font-family="Times,serif" font-size="14.00">temporal_component</text>
</g>
<!-- hour_component&#45;&gt;temporal_component -->
<g id="edge7" class="edge">
<title>hour_component&#45;&gt;temporal_component</title>
<path fill="none" stroke="black" d="M255.55,-220.59C265.65,-210.95 278.5,-198.67 289.74,-187.94"/>
<polygon fill="black" stroke="black" points="292.04,-190.58 296.85,-181.14 287.2,-185.52 292.04,-190.58"/>
</g>
<!-- month_component&#45;&gt;temporal_component -->
<g id="edge8" class="edge">
<title>month_component&#45;&gt;temporal_component</title>
<path fill="none" stroke="black" d="M389.76,-220.97C376.94,-210.91 360.35,-197.9 346.13,-186.75"/>
<polygon fill="black" stroke="black" points="348.42,-184.1 338.39,-180.68 344.1,-189.6 348.42,-184.1"/>
</g>
<!-- year_component&#45;&gt;temporal_component -->
<g id="edge9" class="edge">
<title>year_component&#45;&gt;temporal_component</title>
<path fill="none" stroke="black" d="M94.96,-220.88C110.82,-209.81 133.12,-195.89 154.85,-188 176,-180.31 199.55,-174.99 221.97,-171.3"/>
<polygon fill="black" stroke="black" points="222.38,-174.78 231.73,-169.8 221.31,-167.86 222.38,-174.78"/>
</g>
<!-- loc -->
<g id="node11" class="node">
<title>loc</title>
<ellipse fill="white" stroke="black" stroke-dasharray="5,2" cx="409.85" cy="-90" rx="27" ry="18"/>
<text xml:space="preserve" text-anchor="middle" x="409.85" y="-84.95" font-family="Times,serif" font-size="14.00">loc</text>
</g>
<!-- temporal_component&#45;&gt;loc -->
<g id="edge11" class="edge">
<title>temporal_component&#45;&gt;loc</title>
<path fill="none" stroke="black" d="M338.12,-144.41C351.75,-134.26 369.26,-121.23 383.56,-110.57"/>
<polygon fill="black" stroke="black" points="385.28,-113.66 391.21,-104.88 381.1,-108.04 385.28,-113.66"/>
</g>
<!-- spatial_component -->
<g id="node10" class="node">
<title>spatial_component</title>
<ellipse fill="white" stroke="black" stroke-dasharray="5,2" cx="543.85" cy="-162" rx="81.04" ry="18"/>
<text xml:space="preserve" text-anchor="middle" x="543.85" y="-156.95" font-family="Times,serif" font-size="14.00">spatial_component</text>
</g>
<!-- spatial_component&#45;&gt;loc -->
<g id="edge12" class="edge">
<title>spatial_component&#45;&gt;loc</title>
<path fill="none" stroke="black" d="M513.11,-144.94C491.33,-133.56 462.23,-118.36 440.48,-107"/>
<polygon fill="black" stroke="black" points="442.28,-103.99 431.79,-102.46 439.03,-110.2 442.28,-103.99"/>
</g>
<!-- obs -->
<g id="node13" class="node">
<title>obs</title>
<ellipse fill="grey" stroke="black" cx="391.85" cy="-18" rx="27" ry="18"/>
<text xml:space="preserve" text-anchor="middle" x="391.85" y="-12.95" font-family="Times,serif" font-size="14.00">obs</text>
</g>
<!-- loc&#45;&gt;obs -->
<g id="edge13" class="edge">
<title>loc&#45;&gt;obs</title>
<path fill="none" stroke="black" d="M405.49,-72.05C403.54,-64.49 401.2,-55.37 399.01,-46.85"/>
<polygon fill="black" stroke="black" points="402.42,-46.07 396.54,-37.25 395.64,-47.81 402.42,-46.07"/>
</g>
<!-- log_likelihood -->
<g id="node14" class="node">
<title>log_likelihood</title>
<ellipse fill="white" stroke="black" stroke-dasharray="5,2" cx="501.85" cy="-18" rx="64.66" ry="18"/>
<text xml:space="preserve" text-anchor="middle" x="501.85" y="-12.95" font-family="Times,serif" font-size="14.00">log_likelihood</text>
</g>
<!-- loc&#45;&gt;log_likelihood -->
<g id="edge15" class="edge">
<title>loc&#45;&gt;log_likelihood</title>
<path fill="none" stroke="black" d="M427.15,-75.83C439.65,-66.32 456.86,-53.23 471.61,-42.01"/>
<polygon fill="black" stroke="black" points="473.37,-45.07 479.21,-36.23 469.13,-39.5 473.37,-45.07"/>
</g>
<!-- scale -->
<g id="node12" class="node">
<title>scale</title>
<ellipse fill="white" stroke="black" cx="492.85" cy="-90" rx="29.34" ry="18"/>
<text xml:space="preserve" text-anchor="middle" x="492.85" y="-84.95" font-family="Times,serif" font-size="14.00">scale</text>
</g>
<!-- scale&#45;&gt;obs -->
<g id="edge14" class="edge">
<title>scale&#45;&gt;obs</title>
<path fill="none" stroke="black" d="M473.85,-75.83C458.42,-65.14 436.46,-49.92 419.15,-37.92"/>
<polygon fill="black" stroke="black" points="421.54,-35.32 411.32,-32.5 417.55,-41.07 421.54,-35.32"/>
</g>
<!-- scale&#45;&gt;log_likelihood -->
<g id="edge16" class="edge">
<title>scale&#45;&gt;log_likelihood</title>
<path fill="none" stroke="black" d="M495.07,-71.7C496.02,-64.32 497.15,-55.52 498.22,-47.25"/>
<polygon fill="black" stroke="black" points="501.65,-47.97 499.46,-37.61 494.71,-47.08 501.65,-47.97"/>
</g>
<!-- alpha_decentered -->
<g id="node15" class="node">
<title>alpha_decentered</title>
<ellipse fill="white" stroke="black" cx="582.85" cy="-310.5" rx="75.41" ry="18"/>
<text xml:space="preserve" text-anchor="middle" x="582.85" y="-305.45" font-family="Times,serif" font-size="14.00">alpha_decentered</text>
</g>
<!-- alpha_decentered&#45;&gt;alpha -->
<g id="edge3" class="edge">
<title>alpha_decentered&#45;&gt;alpha</title>
<path fill="none" stroke="black" d="M588.29,-292.2C590.63,-284.74 593.43,-275.82 596.06,-267.47"/>
<polygon fill="black" stroke="black" points="599.36,-268.64 599.02,-258.05 592.68,-266.54 599.36,-268.64"/>
</g>
<!-- alpha&#45;&gt;spatial_component -->
<g id="edge10" class="edge">
<title>alpha&#45;&gt;spatial_component</title>
<path fill="none" stroke="black" d="M591.91,-221.7C584.1,-212.16 573.95,-199.76 564.99,-188.83"/>
<polygon fill="black" stroke="black" points="567.83,-186.77 558.79,-181.25 562.41,-191.2 567.83,-186.77"/>
</g>
</g>
</svg>
