<?xml version="1.0" encoding="UTF-8" standalone="no"?>
<!DOCTYPE svg PUBLIC "-//W3C//DTD SVG 1.1//EN"
 "http://www.w3.org/Graphics/SVG/1.1/DTD/svg11.dtd">
<!-- Generated by graphviz version 13.1.2 (0)
 -->
<!-- Pages: 1 -->
<svg width="1038pt" height="393pt"
 viewBox="0.00 0.00 1038.00 393.00" xmlns="http://www.w3.org/2000/svg" xmlns:xlink="http://www.w3.org/1999/xlink">
<g id="graph0" class="graph" transform="scale(1 1) rotate(0) translate(4 389)">
<polygon fill="white" stroke="none" points="-4,4 -4,-389 1034.04,-389 1034.04,4 -4,4"/>
<g id="clust1" class="cluster">
<title>cluster_counties</title>
<polygon fill="none" stroke="black" points="8,-188 8,-377 238,-377 238,-188 8,-188"/>
<text xml:space="preserve" text-anchor="middle" x="207.5" y="-195.2" font-family="Times,serif" font-size="14.00">counties</text>
</g>
<g id="clust2" class="cluster">
<title>cluster_spline_coefficients</title>
<polygon fill="none" stroke="black" points="16,-220.5 16,-369 230,-369 230,-220.5 16,-220.5"/>
<text xml:space="preserve" text-anchor="middle" x="171" y="-227.7" font-family="Times,serif" font-size="14.00">spline_coefficients</text>
</g>
<!-- mu_beta_spatial -->
<g id="node1" class="node">
<title>mu_beta_spatial</title>
<ellipse fill="white" stroke="black" cx="318" cy="-343" rx="71.82" ry="18"/>
<text xml:space="preserve" text-anchor="middle" x="318" y="-337.95" font-family="Times,serif" font-size="14.00">mu_beta_spatial</text>
</g>
<!-- beta_spatial -->
<g id="node16" class="node">
<title>beta_spatial</title>
<ellipse fill="white" stroke="black" stroke-dasharray="5,2" cx="167" cy="-271" rx="54.93" ry="18"/>
<text xml:space="preserve" text-anchor="middle" x="167" y="-265.95" font-family="Times,serif" font-size="14.00">beta_spatial</text>
</g>
<!-- mu_beta_spatial&#45;&gt;beta_spatial -->
<g id="edge1" class="edge">
<title>mu_beta_spatial&#45;&gt;beta_spatial</title>
<path fill="none" stroke="black" d="M284.86,-326.64C262.25,-316.16 232.14,-302.2 208.02,-291.02"/>
<polygon fill="black" stroke="black" points="209.66,-287.92 199.12,-286.89 206.72,-294.27 209.66,-287.92"/>
</g>
<!-- sigma_beta_spatial -->
<g id="node2" class="node">
<title>sigma_beta_spatial</title>
<ellipse fill="white" stroke="black" cx="490" cy="-343" rx="82.06" ry="18"/>
<text xml:space="preserve" text-anchor="middle" x="490" y="-337.95" font-family="Times,serif" font-size="14.00">sigma_beta_spatial</text>
</g>
<!-- sigma_beta_spatial&#45;&gt;beta_spatial -->
<g id="edge2" class="edge">
<title>sigma_beta_spatial&#45;&gt;beta_spatial</title>
<path fill="none" stroke="black" d="M433,-329.65C373.79,-316.81 281.74,-296.87 222.93,-284.12"/>
<polygon fill="black" stroke="black" points="223.99,-280.77 213.47,-282.07 222.5,-287.61 223.99,-280.77"/>
</g>
<!-- beta_hour -->
<g id="node3" class="node">
<title>beta_hour</title>
<ellipse fill="white" stroke="black" cx="776" cy="-343" rx="47.77" ry="18"/>
<text xml:space="preserve" text-anchor="middle" x="776" y="-337.95" font-family="Times,serif" font-size="14.00">beta_hour</text>
</g>
<!-- hour_component -->
<g id="node7" class="node">
<title>hour_component</title>
<ellipse fill="white" stroke="black" stroke-dasharray="5,2" cx="776" cy="-271" rx="73.87" ry="18"/>
<text xml:space="preserve" text-anchor="middle" x="776" y="-265.95" font-family="Times,serif" font-size="14.00">hour_component</text>
</g>
<!-- beta_hour&#45;&gt;hour_component -->
<g id="edge5" class="edge">
<title>beta_hour&#45;&gt;hour_component</title>
<path fill="none" stroke="black" d="M776,-324.7C776,-317.41 776,-308.73 776,-300.54"/>
<polygon fill="black" stroke="black" points="779.5,-300.62 776,-290.62 772.5,-300.62 779.5,-300.62"/>
</g>
<!-- beta_month -->
<g id="node4" class="node">
<title>beta_month</title>
<ellipse fill="white" stroke="black" cx="949" cy="-343" rx="54.93" ry="18"/>
<text xml:space="preserve" text-anchor="middle" x="949" y="-337.95" font-family="Times,serif" font-size="14.00">beta_month</text>
</g>
<!-- month_component -->
<g id="node8" class="node">
<title>month_component</title>
<ellipse fill="white" stroke="black" stroke-dasharray="5,2" cx="949" cy="-271" rx="81.04" ry="18"/>
<text xml:space="preserve" text-anchor="middle" x="949" y="-265.95" font-family="Times,serif" font-size="14.00">month_component</text>
</g>
<!-- beta_month&#45;&gt;month_component -->
<g id="edge6" class="edge">
<title>beta_month&#45;&gt;month_component</title>
<path fill="none" stroke="black" d="M949,-324.7C949,-317.41 949,-308.73 949,-300.54"/>
<polygon fill="black" stroke="black" points="952.5,-300.62 949,-290.62 945.5,-300.62 952.5,-300.62"/>
</g>
<!-- beta_year -->
<g id="node5" class="node">
<title>beta_year</title>
<ellipse fill="white" stroke="black" cx="637" cy="-343" rx="46.75" ry="18"/>
<text xml:space="preserve" text-anchor="middle" x="637" y="-337.95" font-family="Times,serif" font-size="14.00">beta_year</text>
</g>
<!-- year_component -->
<g id="node9" class="node">
<title>year_component</title>
<ellipse fill="white" stroke="black" stroke-dasharray="5,2" cx="611" cy="-271" rx="72.85" ry="18"/>
<text xml:space="preserve" text-anchor="middle" x="611" y="-265.95" font-family="Times,serif" font-size="14.00">year_component</text>
</g>
<!-- beta_year&#45;&gt;year_component -->
<g id="edge7" class="edge">
<title>beta_year&#45;&gt;year_component</title>
<path fill="none" stroke="black" d="M630.57,-324.7C627.77,-317.15 624.42,-308.12 621.28,-299.68"/>
<polygon fill="black" stroke="black" points="624.64,-298.68 617.88,-290.52 618.08,-301.12 624.64,-298.68"/>
</g>
<!-- spatial_component -->
<g id="node6" class="node">
<title>spatial_component</title>
<ellipse fill="white" stroke="black" stroke-dasharray="5,2" cx="377" cy="-162" rx="81.04" ry="18"/>
<text xml:space="preserve" text-anchor="middle" x="377" y="-156.95" font-family="Times,serif" font-size="14.00">spatial_component</text>
</g>
<!-- loc -->
<g id="node11" class="node">
<title>loc</title>
<ellipse fill="white" stroke="black" stroke-dasharray="5,2" cx="471" cy="-90" rx="27" ry="18"/>
<text xml:space="preserve" text-anchor="middle" x="471" y="-84.95" font-family="Times,serif" font-size="14.00">loc</text>
</g>
<!-- spatial_component&#45;&gt;loc -->
<g id="edge11" class="edge">
<title>spatial_component&#45;&gt;loc</title>
<path fill="none" stroke="black" d="M399.28,-144.41C412.9,-134.26 430.41,-121.23 444.71,-110.57"/>
<polygon fill="black" stroke="black" points="446.44,-113.66 452.37,-104.88 442.25,-108.04 446.44,-113.66"/>
</g>
<!-- temporal_component -->
<g id="node10" class="node">
<title>temporal_component</title>
<ellipse fill="white" stroke="black" stroke-dasharray="5,2" cx="693" cy="-162" rx="90.25" ry="18"/>
<text xml:space="preserve" text-anchor="middle" x="693" y="-156.95" font-family="Times,serif" font-size="14.00">temporal_component</text>
</g>
<!-- hour_component&#45;&gt;temporal_component -->
<g id="edge8" class="edge">
<title>hour_component&#45;&gt;temporal_component</title>
<path fill="none" stroke="black" d="M762.66,-252.81C749.29,-235.57 728.54,-208.81 713.16,-188.98"/>
<polygon fill="black" stroke="black" points="716.12,-187.1 707.23,-181.34 710.59,-191.39 716.12,-187.1"/>
</g>
<!-- month_component&#45;&gt;temporal_component -->
<g id="edge9" class="edge">
<title>month_component&#45;&gt;temporal_component</title>
<path fill="none" stroke="black" d="M935.77,-253C919.8,-233.81 891.07,-203.26 859,-188 838.31,-178.15 814.66,-171.99 791.84,-168.19"/>
<polygon fill="black" stroke="black" points="792.62,-164.77 782.21,-166.73 791.57,-171.69 792.62,-164.77"/>
</g>
<!-- year_component&#45;&gt;temporal_component -->
<g id="edge10" class="edge">
<title>year_component&#45;&gt;temporal_component</title>
<path fill="none" stroke="black" d="M624.17,-252.81C637.32,-235.65 657.71,-209.05 672.88,-189.25"/>
<polygon fill="black" stroke="black" points="675.63,-191.42 678.94,-181.35 670.08,-187.16 675.63,-191.42"/>
</g>
<!-- temporal_component&#45;&gt;loc -->
<g id="edge12" class="edge">
<title>temporal_component&#45;&gt;loc</title>
<path fill="none" stroke="black" d="M641.96,-146.75C606.44,-136.58 558.09,-122.23 516,-108 512.25,-106.73 508.34,-105.35 504.46,-103.94"/>
<polygon fill="black" stroke="black" points="505.79,-100.7 495.2,-100.49 503.35,-107.26 505.79,-100.7"/>
</g>
<!-- obs -->
<g id="node13" class="node">
<title>obs</title>
<ellipse fill="grey" stroke="black" cx="453" cy="-18" rx="27" ry="18"/>
<text xml:space="preserve" text-anchor="middle" x="453" y="-12.95" font-family="Times,serif" font-size="14.00">obs</text>
</g>
<!-- loc&#45;&gt;obs -->
<g id="edge13" class="edge">
<title>loc&#45;&gt;obs</title>
<path fill="none" stroke="black" d="M466.64,-72.05C464.7,-64.49 462.35,-55.37 460.16,-46.85"/>
<polygon fill="black" stroke="black" points="463.57,-46.07 457.69,-37.25 456.79,-47.81 463.57,-46.07"/>
</g>
<!-- log_likelihood -->
<g id="node14" class="node">
<title>log_likelihood</title>
<ellipse fill="white" stroke="black" stroke-dasharray="5,2" cx="563" cy="-18" rx="64.66" ry="18"/>
<text xml:space="preserve" text-anchor="middle" x="563" y="-12.95" font-family="Times,serif" font-size="14.00">log_likelihood</text>
</g>
<!-- loc&#45;&gt;log_likelihood -->
<g id="edge15" class="edge">
<title>loc&#45;&gt;log_likelihood</title>
<path fill="none" stroke="black" d="M488.3,-75.83C500.8,-66.32 518.01,-53.23 532.76,-42.01"/>
<polygon fill="black" stroke="black" points="534.52,-45.07 540.36,-36.23 530.28,-39.5 534.52,-45.07"/>
</g>
<!-- scale -->
<g id="node12" class="node">
<title>scale</title>
<ellipse fill="white" stroke="black" cx="554" cy="-90" rx="29.34" ry="18"/>
<text xml:space="preserve" text-anchor="middle" x="554" y="-84.95" font-family="Times,serif" font-size="14.00">scale</text>
</g>
<!-- scale&#45;&gt;obs -->
<g id="edge14" class="edge">
<title>scale&#45;&gt;obs</title>
<path fill="none" stroke="black" d="M535,-75.83C519.57,-65.14 497.61,-49.92 480.3,-37.92"/>
<polygon fill="black" stroke="black" points="482.69,-35.32 472.48,-32.5 478.7,-41.07 482.69,-35.32"/>
</g>
<!-- scale&#45;&gt;log_likelihood -->
<g id="edge16" class="edge">
<title>scale&#45;&gt;log_likelihood</title>
<path fill="none" stroke="black" d="M556.22,-71.7C557.17,-64.32 558.3,-55.52 559.37,-47.25"/>
<polygon fill="black" stroke="black" points="562.8,-47.97 560.61,-37.61 555.86,-47.08 562.8,-47.97"/>
</g>
<!-- beta_spatial_decentered -->
<g id="node15" class="node">
<title>beta_spatial_decentered</title>
<ellipse fill="white" stroke="black" cx="123" cy="-343" rx="99.46" ry="18"/>
<text xml:space="preserve" text-anchor="middle" x="123" y="-337.95" font-family="Times,serif" font-size="14.00">beta_spatial_decentered</text>
</g>
<!-- beta_spatial_decentered&#45;&gt;beta_spatial -->
<g id="edge3" class="edge">
<title>beta_spatial_decentered&#45;&gt;beta_spatial</title>
<path fill="none" stroke="black" d="M133.88,-324.7C138.78,-316.9 144.68,-307.51 150.14,-298.83"/>
<polygon fill="black" stroke="black" points="153.08,-300.71 155.44,-290.39 147.16,-296.99 153.08,-300.71"/>
</g>
<!-- beta_spatial&#45;&gt;spatial_component -->
<g id="edge4" class="edge">
<title>beta_spatial&#45;&gt;spatial_component</title>
<path fill="none" stroke="black" d="M195.76,-255.35C231.9,-236.93 294.19,-205.2 335.49,-184.15"/>
<polygon fill="black" stroke="black" points="336.84,-187.39 344.16,-179.73 333.66,-181.15 336.84,-187.39"/>
</g>
</g>
</svg>
