<?xml version="1.0" encoding="UTF-8" standalone="no"?>
<!DOCTYPE svg PUBLIC "-//W3C//DTD SVG 1.1//EN"
 "http://www.w3.org/Graphics/SVG/1.1/DTD/svg11.dtd">
<!-- Generated by graphviz version 13.1.2 (0)
 -->
<!-- Pages: 1 -->
<svg width="1280pt" height="353pt"
 viewBox="0.00 0.00 1280.00 353.00" xmlns="http://www.w3.org/2000/svg" xmlns:xlink="http://www.w3.org/1999/xlink">
<g id="graph0" class="graph" transform="scale(1 1) rotate(0) translate(4 348.5)">
<polygon fill="white" stroke="none" points="-4,4 -4,-348.5 1275.92,-348.5 1275.92,4 -4,4"/>
<g id="clust1" class="cluster">
<title>cluster_year_spline_coefficients</title>
<polygon fill="none" stroke="black" points="55.93,-260 55.93,-336.5 367.93,-336.5 367.93,-260 55.93,-260"/>
<text xml:space="preserve" text-anchor="middle" x="293.93" y="-267.2" font-family="Times,serif" font-size="14.00">year_spline_coefficients</text>
</g>
<g id="clust2" class="cluster">
<title>cluster_hour_spline_coefficients</title>
<polygon fill="none" stroke="black" points="450.93,-260 450.93,-336.5 766.93,-336.5 766.93,-260 450.93,-260"/>
<text xml:space="preserve" text-anchor="middle" x="692.18" y="-267.2" font-family="Times,serif" font-size="14.00">hour_spline_coefficients</text>
</g>
<g id="clust3" class="cluster">
<title>cluster_month_spline_coefficients</title>
<polygon fill="none" stroke="black" points="883.93,-260 883.93,-336.5 1227.93,-336.5 1227.93,-260 883.93,-260"/>
<text xml:space="preserve" text-anchor="middle" x="1147.93" y="-267.2" font-family="Times,serif" font-size="14.00">month_spline_coefficients</text>
</g>
<!-- alpha_gate -->
<g id="node1" class="node">
<title>alpha_gate</title>
<ellipse fill="white" stroke="black" cx="587.93" cy="-162" rx="50.84" ry="18"/>
<text xml:space="preserve" text-anchor="middle" x="587.93" y="-156.95" font-family="Times,serif" font-size="14.00">alpha_gate</text>
</g>
<!-- gate -->
<g id="node11" class="node">
<title>gate</title>
<ellipse fill="white" stroke="black" stroke-dasharray="5,2" cx="598.93" cy="-90" rx="27" ry="18"/>
<text xml:space="preserve" text-anchor="middle" x="598.93" y="-84.95" font-family="Times,serif" font-size="14.00">gate</text>
</g>
<!-- alpha_gate&#45;&gt;gate -->
<g id="edge13" class="edge">
<title>alpha_gate&#45;&gt;gate</title>
<path fill="none" stroke="black" d="M590.65,-143.7C591.8,-136.32 593.19,-127.52 594.49,-119.25"/>
<polygon fill="black" stroke="black" points="597.91,-120.02 596,-109.6 590.99,-118.93 597.91,-120.02"/>
</g>
<!-- alpha_mean -->
<g id="node2" class="node">
<title>alpha_mean</title>
<ellipse fill="white" stroke="black" cx="462.93" cy="-162" rx="55.96" ry="18"/>
<text xml:space="preserve" text-anchor="middle" x="462.93" y="-156.95" font-family="Times,serif" font-size="14.00">alpha_mean</text>
</g>
<!-- mean -->
<g id="node12" class="node">
<title>mean</title>
<ellipse fill="white" stroke="black" stroke-dasharray="5,2" cx="450.93" cy="-90" rx="31.39" ry="18"/>
<text xml:space="preserve" text-anchor="middle" x="450.93" y="-84.95" font-family="Times,serif" font-size="14.00">mean</text>
</g>
<!-- alpha_mean&#45;&gt;mean -->
<g id="edge15" class="edge">
<title>alpha_mean&#45;&gt;mean</title>
<path fill="none" stroke="black" d="M459.96,-143.7C458.7,-136.32 457.19,-127.52 455.77,-119.25"/>
<polygon fill="black" stroke="black" points="459.25,-118.86 454.11,-109.6 452.35,-120.04 459.25,-118.86"/>
</g>
<!-- year_component_gate -->
<g id="node3" class="node">
<title>year_component_gate</title>
<ellipse fill="white" stroke="black" stroke-dasharray="5,2" cx="522.93" cy="-234" rx="92.81" ry="18"/>
<text xml:space="preserve" text-anchor="middle" x="522.93" y="-228.95" font-family="Times,serif" font-size="14.00">year_component_gate</text>
</g>
<!-- temporal_component_gate -->
<g id="node9" class="node">
<title>temporal_component_gate</title>
<ellipse fill="white" stroke="black" stroke-dasharray="5,2" cx="766.93" cy="-162" rx="110.21" ry="18"/>
<text xml:space="preserve" text-anchor="middle" x="766.93" y="-156.95" font-family="Times,serif" font-size="14.00">temporal_component_gate</text>
</g>
<!-- year_component_gate&#45;&gt;temporal_component_gate -->
<g id="edge7" class="edge">
<title>year_component_gate&#45;&gt;temporal_component_gate</title>
<path fill="none" stroke="black" d="M573.48,-218.5C611.08,-207.71 662.64,-192.92 703.08,-181.32"/>
<polygon fill="black" stroke="black" points="703.8,-184.75 712.45,-178.63 701.87,-178.02 703.8,-184.75"/>
</g>
<!-- year_component_mean -->
<g id="node4" class="node">
<title>year_component_mean</title>
<ellipse fill="white" stroke="black" stroke-dasharray="5,2" cx="97.93" cy="-234" rx="97.93" ry="18"/>
<text xml:space="preserve" text-anchor="middle" x="97.93" y="-228.95" font-family="Times,serif" font-size="14.00">year_component_mean</text>
</g>
<!-- temporal_component_mean -->
<g id="node10" class="node">
<title>temporal_component_mean</title>
<ellipse fill="white" stroke="black" stroke-dasharray="5,2" cx="273.93" cy="-162" rx="115.33" ry="18"/>
<text xml:space="preserve" text-anchor="middle" x="273.93" y="-156.95" font-family="Times,serif" font-size="14.00">temporal_component_mean</text>
</g>
<!-- year_component_mean&#45;&gt;temporal_component_mean -->
<g id="edge10" class="edge">
<title>year_component_mean&#45;&gt;temporal_component_mean</title>
<path fill="none" stroke="black" d="M137.86,-217.12C163.02,-207.11 195.74,-194.1 222.79,-183.34"/>
<polygon fill="black" stroke="black" points="223.83,-186.69 231.83,-179.74 221.24,-180.19 223.83,-186.69"/>
</g>
<!-- month_component_gate -->
<g id="node5" class="node">
<title>month_component_gate</title>
<ellipse fill="white" stroke="black" stroke-dasharray="5,2" cx="1170.93" cy="-234" rx="101" ry="18"/>
<text xml:space="preserve" text-anchor="middle" x="1170.93" y="-228.95" font-family="Times,serif" font-size="14.00">month_component_gate</text>
</g>
<!-- month_component_gate&#45;&gt;temporal_component_gate -->
<g id="edge8" class="edge">
<title>month_component_gate&#45;&gt;temporal_component_gate</title>
<path fill="none" stroke="black" d="M1100.55,-220.81C1031.31,-208.81 925.53,-190.48 851.69,-177.69"/>
<polygon fill="black" stroke="black" points="852.53,-174.28 842.08,-176.02 851.33,-181.18 852.53,-174.28"/>
</g>
<!-- month_component_mean -->
<g id="node6" class="node">
<title>month_component_mean</title>
<ellipse fill="white" stroke="black" stroke-dasharray="5,2" cx="945.93" cy="-234" rx="106.11" ry="18"/>
<text xml:space="preserve" text-anchor="middle" x="945.93" y="-228.95" font-family="Times,serif" font-size="14.00">month_component_mean</text>
</g>
<!-- month_component_mean&#45;&gt;temporal_component_mean -->
<g id="edge11" class="edge">
<title>month_component_mean&#45;&gt;temporal_component_mean</title>
<path fill="none" stroke="black" d="M869.93,-221.07C856.94,-219.23 843.56,-217.46 830.93,-216 639.09,-193.87 589.88,-201.12 397.93,-180 388.2,-178.93 378.05,-177.71 367.94,-176.43"/>
<polygon fill="black" stroke="black" points="368.43,-172.96 358.06,-175.15 367.53,-179.9 368.43,-172.96"/>
</g>
<!-- hour_component_gate -->
<g id="node7" class="node">
<title>hour_component_gate</title>
<ellipse fill="white" stroke="black" stroke-dasharray="5,2" cx="727.93" cy="-234" rx="93.83" ry="18"/>
<text xml:space="preserve" text-anchor="middle" x="727.93" y="-228.95" font-family="Times,serif" font-size="14.00">hour_component_gate</text>
</g>
<!-- hour_component_gate&#45;&gt;temporal_component_gate -->
<g id="edge9" class="edge">
<title>hour_component_gate&#45;&gt;temporal_component_gate</title>
<path fill="none" stroke="black" d="M737.57,-215.7C741.86,-207.98 747.03,-198.71 751.82,-190.11"/>
<polygon fill="black" stroke="black" points="754.85,-191.87 756.66,-181.43 748.74,-188.46 754.85,-191.87"/>
</g>
<!-- hour_component_mean -->
<g id="node8" class="node">
<title>hour_component_mean</title>
<ellipse fill="white" stroke="black" stroke-dasharray="5,2" cx="312.93" cy="-234" rx="98.95" ry="18"/>
<text xml:space="preserve" text-anchor="middle" x="312.93" y="-228.95" font-family="Times,serif" font-size="14.00">hour_component_mean</text>
</g>
<!-- hour_component_mean&#45;&gt;temporal_component_mean -->
<g id="edge12" class="edge">
<title>hour_component_mean&#45;&gt;temporal_component_mean</title>
<path fill="none" stroke="black" d="M303.29,-215.7C298.99,-207.98 293.82,-198.71 289.03,-190.11"/>
<polygon fill="black" stroke="black" points="292.12,-188.46 284.19,-181.43 286,-191.87 292.12,-188.46"/>
</g>
<!-- temporal_component_gate&#45;&gt;gate -->
<g id="edge14" class="edge">
<title>temporal_component_gate&#45;&gt;gate</title>
<path fill="none" stroke="black" d="M727.96,-144.76C698.7,-132.57 659.08,-116.06 631.49,-104.57"/>
<polygon fill="black" stroke="black" points="633.17,-101.47 622.59,-100.86 630.47,-107.94 633.17,-101.47"/>
</g>
<!-- temporal_component_mean&#45;&gt;mean -->
<g id="edge16" class="edge">
<title>temporal_component_mean&#45;&gt;mean</title>
<path fill="none" stroke="black" d="M314.98,-144.76C345.22,-132.8 385.97,-116.69 414.94,-105.23"/>
<polygon fill="black" stroke="black" points="416.01,-108.57 424.02,-101.64 413.43,-102.06 416.01,-108.57"/>
</g>
<!-- obs -->
<g id="node14" class="node">
<title>obs</title>
<ellipse fill="grey" stroke="black" cx="469.93" cy="-18" rx="27" ry="18"/>
<text xml:space="preserve" text-anchor="middle" x="469.93" y="-12.95" font-family="Times,serif" font-size="14.00">obs</text>
</g>
<!-- gate&#45;&gt;obs -->
<g id="edge17" class="edge">
<title>gate&#45;&gt;obs</title>
<path fill="none" stroke="black" d="M578.49,-77.91C557.44,-66.49 524.42,-48.57 500.32,-35.49"/>
<polygon fill="black" stroke="black" points="502.06,-32.45 491.6,-30.76 498.72,-38.61 502.06,-32.45"/>
</g>
<!-- log_likelihood -->
<g id="node15" class="node">
<title>log_likelihood</title>
<ellipse fill="white" stroke="black" stroke-dasharray="5,2" cx="579.93" cy="-18" rx="64.66" ry="18"/>
<text xml:space="preserve" text-anchor="middle" x="579.93" y="-12.95" font-family="Times,serif" font-size="14.00">log_likelihood</text>
</g>
<!-- gate&#45;&gt;log_likelihood -->
<g id="edge20" class="edge">
<title>gate&#45;&gt;log_likelihood</title>
<path fill="none" stroke="black" d="M594.33,-72.05C592.3,-64.6 589.87,-55.64 587.59,-47.22"/>
<polygon fill="black" stroke="black" points="591.01,-46.47 585.01,-37.74 584.25,-48.3 591.01,-46.47"/>
</g>
<!-- mean&#45;&gt;obs -->
<g id="edge18" class="edge">
<title>mean&#45;&gt;obs</title>
<path fill="none" stroke="black" d="M455.53,-72.05C457.58,-64.49 460.05,-55.37 462.37,-46.85"/>
<polygon fill="black" stroke="black" points="465.73,-47.82 464.97,-37.25 458.98,-45.98 465.73,-47.82"/>
</g>
<!-- mean&#45;&gt;log_likelihood -->
<g id="edge21" class="edge">
<title>mean&#45;&gt;log_likelihood</title>
<path fill="none" stroke="black" d="M473.1,-76.97C491.84,-66.8 519.12,-52 541.42,-39.9"/>
<polygon fill="black" stroke="black" points="542.81,-43.12 549.93,-35.27 539.48,-36.97 542.81,-43.12"/>
</g>
<!-- rate -->
<g id="node13" class="node">
<title>rate</title>
<ellipse fill="white" stroke="black" cx="526.93" cy="-90" rx="27" ry="18"/>
<text xml:space="preserve" text-anchor="middle" x="526.93" y="-84.95" font-family="Times,serif" font-size="14.00">rate</text>
</g>
<!-- rate&#45;&gt;obs -->
<g id="edge19" class="edge">
<title>rate&#45;&gt;obs</title>
<path fill="none" stroke="black" d="M514.56,-73.81C507.24,-64.82 497.8,-53.23 489.49,-43.03"/>
<polygon fill="black" stroke="black" points="492.25,-40.88 483.23,-35.33 486.83,-45.3 492.25,-40.88"/>
</g>
<!-- rate&#45;&gt;log_likelihood -->
<g id="edge22" class="edge">
<title>rate&#45;&gt;log_likelihood</title>
<path fill="none" stroke="black" d="M538.69,-73.46C545,-65.13 552.95,-54.63 560.18,-45.08"/>
<polygon fill="black" stroke="black" points="562.92,-47.25 566.17,-37.17 557.34,-43.03 562.92,-47.25"/>
</g>
<!-- beta_year_gate -->
<g id="node16" class="node">
<title>beta_year_gate</title>
<ellipse fill="white" stroke="black" cx="292.93" cy="-310.5" rx="66.71" ry="18"/>
<text xml:space="preserve" text-anchor="middle" x="292.93" y="-305.45" font-family="Times,serif" font-size="14.00">beta_year_gate</text>
</g>
<!-- beta_year_gate&#45;&gt;year_component_gate -->
<g id="edge1" class="edge">
<title>beta_year_gate&#45;&gt;year_component_gate</title>
<path fill="none" stroke="black" d="M334.58,-296.01C371.34,-284.1 425.26,-266.64 466,-253.44"/>
<polygon fill="black" stroke="black" points="466.97,-256.8 475.41,-250.39 464.81,-250.14 466.97,-256.8"/>
</g>
<!-- beta_year_mean -->
<g id="node17" class="node">
<title>beta_year_mean</title>
<ellipse fill="white" stroke="black" cx="135.93" cy="-310.5" rx="71.82" ry="18"/>
<text xml:space="preserve" text-anchor="middle" x="135.93" y="-305.45" font-family="Times,serif" font-size="14.00">beta_year_mean</text>
</g>
<!-- beta_year_mean&#45;&gt;year_component_mean -->
<g id="edge2" class="edge">
<title>beta_year_mean&#45;&gt;year_component_mean</title>
<path fill="none" stroke="black" d="M127.11,-292.22C122.56,-283.29 116.89,-272.18 111.77,-262.13"/>
<polygon fill="black" stroke="black" points="115.04,-260.85 107.38,-253.53 108.81,-264.03 115.04,-260.85"/>
</g>
<!-- beta_hour_gate -->
<g id="node18" class="node">
<title>beta_hour_gate</title>
<ellipse fill="white" stroke="black" cx="690.93" cy="-310.5" rx="67.73" ry="18"/>
<text xml:space="preserve" text-anchor="middle" x="690.93" y="-305.45" font-family="Times,serif" font-size="14.00">beta_hour_gate</text>
</g>
<!-- beta_hour_gate&#45;&gt;hour_component_gate -->
<g id="edge5" class="edge">
<title>beta_hour_gate&#45;&gt;hour_component_gate</title>
<path fill="none" stroke="black" d="M699.51,-292.22C703.9,-283.38 709.34,-272.41 714.29,-262.45"/>
<polygon fill="black" stroke="black" points="717.4,-264.05 718.72,-253.54 711.13,-260.94 717.4,-264.05"/>
</g>
<!-- beta_hour_mean -->
<g id="node19" class="node">
<title>beta_hour_mean</title>
<ellipse fill="white" stroke="black" cx="531.93" cy="-310.5" rx="72.85" ry="18"/>
<text xml:space="preserve" text-anchor="middle" x="531.93" y="-305.45" font-family="Times,serif" font-size="14.00">beta_hour_mean</text>
</g>
<!-- beta_hour_mean&#45;&gt;hour_component_mean -->
<g id="edge6" class="edge">
<title>beta_hour_mean&#45;&gt;hour_component_mean</title>
<path fill="none" stroke="black" d="M490.22,-295.31C455.88,-283.63 406.88,-266.96 369.09,-254.11"/>
<polygon fill="black" stroke="black" points="370.28,-250.81 359.69,-250.91 368.03,-257.44 370.28,-250.81"/>
</g>
<!-- beta_month_gate -->
<g id="node20" class="node">
<title>beta_month_gate</title>
<ellipse fill="white" stroke="black" cx="1144.93" cy="-310.5" rx="74.89" ry="18"/>
<text xml:space="preserve" text-anchor="middle" x="1144.93" y="-305.45" font-family="Times,serif" font-size="14.00">beta_month_gate</text>
</g>
<!-- beta_month_gate&#45;&gt;month_component_gate -->
<g id="edge3" class="edge">
<title>beta_month_gate&#45;&gt;month_component_gate</title>
<path fill="none" stroke="black" d="M1150.96,-292.22C1153.95,-283.63 1157.65,-273.03 1161.05,-263.3"/>
<polygon fill="black" stroke="black" points="1164.35,-264.47 1164.34,-253.87 1157.74,-262.16 1164.35,-264.47"/>
</g>
<!-- beta_month_mean -->
<g id="node21" class="node">
<title>beta_month_mean</title>
<ellipse fill="white" stroke="black" cx="971.93" cy="-310.5" rx="80.01" ry="18"/>
<text xml:space="preserve" text-anchor="middle" x="971.93" y="-305.45" font-family="Times,serif" font-size="14.00">beta_month_mean</text>
</g>
<!-- beta_month_mean&#45;&gt;month_component_mean -->
<g id="edge4" class="edge">
<title>beta_month_mean&#45;&gt;month_component_mean</title>
<path fill="none" stroke="black" d="M965.9,-292.22C962.9,-283.63 959.2,-273.03 955.8,-263.3"/>
<polygon fill="black" stroke="black" points="959.11,-262.16 952.51,-253.87 952.5,-264.47 959.11,-262.16"/>
</g>
</g>
</svg>
