<?xml version="1.0" encoding="UTF-8" standalone="no"?>
<!DOCTYPE svg PUBLIC "-//W3C//DTD SVG 1.1//EN"
 "http://www.w3.org/Graphics/SVG/1.1/DTD/svg11.dtd">
<!-- Generated by graphviz version 13.1.2 (0)
 -->
<!-- Pages: 1 -->
<svg width="2290pt" height="357pt"
 viewBox="0.00 0.00 2290.00 357.00" xmlns="http://www.w3.org/2000/svg" xmlns:xlink="http://www.w3.org/1999/xlink">
<g id="graph0" class="graph" transform="scale(1 1) rotate(0) translate(4 353)">
<polygon fill="white" stroke="none" points="-4,4 -4,-353 2285.95,-353 2285.95,4 -4,4"/>
<g id="clust1" class="cluster">
<title>cluster_counties</title>
<polygon fill="none" stroke="black" points="8,-188 8,-341 433,-341 433,-188 8,-188"/>
<text xml:space="preserve" text-anchor="middle" x="402.5" y="-195.2" font-family="Times,serif" font-size="14.00">counties</text>
</g>
<g id="clust2" class="cluster">
<title>cluster_year_spline_coefficients</title>
<polygon fill="none" stroke="black" points="1111,-264.5 1111,-341 1423,-341 1423,-264.5 1111,-264.5"/>
<text xml:space="preserve" text-anchor="middle" x="1349" y="-271.7" font-family="Times,serif" font-size="14.00">year_spline_coefficients</text>
</g>
<g id="clust3" class="cluster">
<title>cluster_hour_spline_coefficients</title>
<polygon fill="none" stroke="black" points="1918,-264.5 1918,-341 2234,-341 2234,-264.5 1918,-264.5"/>
<text xml:space="preserve" text-anchor="middle" x="2159.25" y="-271.7" font-family="Times,serif" font-size="14.00">hour_spline_coefficients</text>
</g>
<g id="clust4" class="cluster">
<title>cluster_month_spline_coefficients</title>
<polygon fill="none" stroke="black" points="1491,-264.5 1491,-341 1835,-341 1835,-264.5 1491,-264.5"/>
<text xml:space="preserve" text-anchor="middle" x="1755" y="-271.7" font-family="Times,serif" font-size="14.00">month_spline_coefficients</text>
</g>
<!-- mu_alpha_gate -->
<g id="node1" class="node">
<title>mu_alpha_gate</title>
<ellipse fill="white" stroke="black" cx="511" cy="-315" rx="67.73" ry="18"/>
<text xml:space="preserve" text-anchor="middle" x="511" y="-309.95" font-family="Times,serif" font-size="14.00">mu_alpha_gate</text>
</g>
<!-- alpha_gate -->
<g id="node21" class="node">
<title>alpha_gate</title>
<ellipse fill="white" stroke="black" stroke-dasharray="5,2" cx="244" cy="-238.5" rx="50.84" ry="18"/>
<text xml:space="preserve" text-anchor="middle" x="244" y="-233.45" font-family="Times,serif" font-size="14.00">alpha_gate</text>
</g>
<!-- mu_alpha_gate&#45;&gt;alpha_gate -->
<g id="edge1" class="edge">
<title>mu_alpha_gate&#45;&gt;alpha_gate</title>
<path fill="none" stroke="black" d="M492.42,-297.46C478.29,-285.97 457.8,-271.5 437,-264.5 408.94,-255.05 333.19,-261.45 304,-256.5 299.97,-255.82 295.83,-254.97 291.69,-254.01"/>
<polygon fill="black" stroke="black" points="292.86,-250.7 282.31,-251.66 291.16,-257.48 292.86,-250.7"/>
</g>
<!-- sigma_alpha_gate -->
<g id="node2" class="node">
<title>sigma_alpha_gate</title>
<ellipse fill="white" stroke="black" cx="675" cy="-315" rx="77.97" ry="18"/>
<text xml:space="preserve" text-anchor="middle" x="675" y="-309.95" font-family="Times,serif" font-size="14.00">sigma_alpha_gate</text>
</g>
<!-- sigma_alpha_gate&#45;&gt;alpha_gate -->
<g id="edge2" class="edge">
<title>sigma_alpha_gate&#45;&gt;alpha_gate</title>
<path fill="none" stroke="black" d="M653.1,-297.49C636.27,-285.85 611.93,-271.19 588,-264.5 527.2,-247.49 366.41,-266.07 304,-256.5 299.91,-255.87 295.7,-255.05 291.5,-254.11"/>
<polygon fill="black" stroke="black" points="292.51,-250.76 281.96,-251.75 290.83,-257.55 292.51,-250.76"/>
</g>
<!-- mu_alpha_mean -->
<g id="node3" class="node">
<title>mu_alpha_mean</title>
<ellipse fill="white" stroke="black" cx="844" cy="-315" rx="72.85" ry="18"/>
<text xml:space="preserve" text-anchor="middle" x="844" y="-309.95" font-family="Times,serif" font-size="14.00">mu_alpha_mean</text>
</g>
<!-- alpha_mean -->
<g id="node23" class="node">
<title>alpha_mean</title>
<ellipse fill="white" stroke="black" stroke-dasharray="5,2" cx="369" cy="-238.5" rx="55.96" ry="18"/>
<text xml:space="preserve" text-anchor="middle" x="369" y="-233.45" font-family="Times,serif" font-size="14.00">alpha_mean</text>
</g>
<!-- mu_alpha_mean&#45;&gt;alpha_mean -->
<g id="edge4" class="edge">
<title>mu_alpha_mean&#45;&gt;alpha_mean</title>
<path fill="none" stroke="black" d="M823.11,-297.49C807.3,-286.01 784.54,-271.55 762,-264.5 703.22,-246.1 532.51,-241.22 436.54,-239.94"/>
<polygon fill="black" stroke="black" points="436.77,-236.44 426.73,-239.82 436.69,-243.44 436.77,-236.44"/>
</g>
<!-- sigma_alpha_mean -->
<g id="node4" class="node">
<title>sigma_alpha_mean</title>
<ellipse fill="white" stroke="black" cx="1018" cy="-315" rx="83.08" ry="18"/>
<text xml:space="preserve" text-anchor="middle" x="1018" y="-309.95" font-family="Times,serif" font-size="14.00">sigma_alpha_mean</text>
</g>
<!-- sigma_alpha_mean&#45;&gt;alpha_mean -->
<g id="edge5" class="edge">
<title>sigma_alpha_mean&#45;&gt;alpha_mean</title>
<path fill="none" stroke="black" d="M994.29,-297.37C976.42,-285.83 950.83,-271.35 926,-264.5 835.76,-239.6 563.94,-238.05 436.42,-238.79"/>
<polygon fill="black" stroke="black" points="436.77,-235.28 426.79,-238.85 436.81,-242.28 436.77,-235.28"/>
</g>
<!-- year_component_gate -->
<g id="node5" class="node">
<title>year_component_gate</title>
<ellipse fill="white" stroke="black" stroke-dasharray="5,2" cx="1103" cy="-238.5" rx="92.81" ry="18"/>
<text xml:space="preserve" text-anchor="middle" x="1103" y="-233.45" font-family="Times,serif" font-size="14.00">year_component_gate</text>
</g>
<!-- temporal_component_gate -->
<g id="node11" class="node">
<title>temporal_component_gate</title>
<ellipse fill="white" stroke="black" stroke-dasharray="5,2" cx="1256" cy="-162" rx="110.21" ry="18"/>
<text xml:space="preserve" text-anchor="middle" x="1256" y="-156.95" font-family="Times,serif" font-size="14.00">temporal_component_gate</text>
</g>
<!-- year_component_gate&#45;&gt;temporal_component_gate -->
<g id="edge13" class="edge">
<title>year_component_gate&#45;&gt;temporal_component_gate</title>
<path fill="none" stroke="black" d="M1136.2,-221.33C1158.32,-210.56 1187.66,-196.28 1211.76,-184.54"/>
<polygon fill="black" stroke="black" points="1213.25,-187.71 1220.71,-180.18 1210.19,-181.41 1213.25,-187.71"/>
</g>
<!-- year_component_mean -->
<g id="node6" class="node">
<title>year_component_mean</title>
<ellipse fill="white" stroke="black" stroke-dasharray="5,2" cx="1312" cy="-238.5" rx="97.93" ry="18"/>
<text xml:space="preserve" text-anchor="middle" x="1312" y="-233.45" font-family="Times,serif" font-size="14.00">year_component_mean</text>
</g>
<!-- temporal_component_mean -->
<g id="node12" class="node">
<title>temporal_component_mean</title>
<ellipse fill="white" stroke="black" stroke-dasharray="5,2" cx="1806" cy="-162" rx="115.33" ry="18"/>
<text xml:space="preserve" text-anchor="middle" x="1806" y="-156.95" font-family="Times,serif" font-size="14.00">temporal_component_mean</text>
</g>
<!-- year_component_mean&#45;&gt;temporal_component_mean -->
<g id="edge16" class="edge">
<title>year_component_mean&#45;&gt;temporal_component_mean</title>
<path fill="none" stroke="black" d="M1340.44,-220.81C1361.41,-209.4 1391.03,-195.11 1419,-188 1466.97,-175.81 1587.48,-169.37 1681.4,-166.11"/>
<polygon fill="black" stroke="black" points="1681.32,-169.61 1691.2,-165.77 1681.09,-162.61 1681.32,-169.61"/>
</g>
<!-- month_component_gate -->
<g id="node7" class="node">
<title>month_component_gate</title>
<ellipse fill="white" stroke="black" stroke-dasharray="5,2" cx="1529" cy="-238.5" rx="101" ry="18"/>
<text xml:space="preserve" text-anchor="middle" x="1529" y="-233.45" font-family="Times,serif" font-size="14.00">month_component_gate</text>
</g>
<!-- month_component_gate&#45;&gt;temporal_component_gate -->
<g id="edge14" class="edge">
<title>month_component_gate&#45;&gt;temporal_component_gate</title>
<path fill="none" stroke="black" d="M1498.56,-221.11C1476.94,-210.14 1446.91,-196.25 1419,-188 1399.54,-182.25 1378.36,-177.76 1357.91,-174.29"/>
<polygon fill="black" stroke="black" points="1358.56,-170.85 1348.13,-172.7 1357.44,-177.76 1358.56,-170.85"/>
</g>
<!-- month_component_mean -->
<g id="node8" class="node">
<title>month_component_mean</title>
<ellipse fill="white" stroke="black" stroke-dasharray="5,2" cx="1960" cy="-238.5" rx="106.11" ry="18"/>
<text xml:space="preserve" text-anchor="middle" x="1960" y="-233.45" font-family="Times,serif" font-size="14.00">month_component_mean</text>
</g>
<!-- month_component_mean&#45;&gt;temporal_component_mean -->
<g id="edge17" class="edge">
<title>month_component_mean&#45;&gt;temporal_component_mean</title>
<path fill="none" stroke="black" d="M1926.2,-221.15C1903.99,-210.41 1874.69,-196.23 1850.57,-184.56"/>
<polygon fill="black" stroke="black" points="1852.14,-181.43 1841.61,-180.23 1849.09,-187.73 1852.14,-181.43"/>
</g>
<!-- hour_component_gate -->
<g id="node9" class="node">
<title>hour_component_gate</title>
<ellipse fill="white" stroke="black" stroke-dasharray="5,2" cx="1742" cy="-238.5" rx="93.83" ry="18"/>
<text xml:space="preserve" text-anchor="middle" x="1742" y="-233.45" font-family="Times,serif" font-size="14.00">hour_component_gate</text>
</g>
<!-- hour_component_gate&#45;&gt;temporal_component_gate -->
<g id="edge15" class="edge">
<title>hour_component_gate&#45;&gt;temporal_component_gate</title>
<path fill="none" stroke="black" d="M1714.7,-220.81C1694.56,-209.39 1666.06,-195.1 1639,-188 1591,-175.41 1469.2,-169 1375.73,-165.85"/>
<polygon fill="black" stroke="black" points="1376.1,-162.36 1365.99,-165.53 1375.87,-169.36 1376.1,-162.36"/>
</g>
<!-- hour_component_mean -->
<g id="node10" class="node">
<title>hour_component_mean</title>
<ellipse fill="white" stroke="black" stroke-dasharray="5,2" cx="2183" cy="-238.5" rx="98.95" ry="18"/>
<text xml:space="preserve" text-anchor="middle" x="2183" y="-233.45" font-family="Times,serif" font-size="14.00">hour_component_mean</text>
</g>
<!-- hour_component_mean&#45;&gt;temporal_component_mean -->
<g id="edge18" class="edge">
<title>hour_component_mean&#45;&gt;temporal_component_mean</title>
<path fill="none" stroke="black" d="M2154.21,-221.05C2133,-209.76 2103.1,-195.51 2075,-188 2028.95,-175.69 1977.08,-169.21 1931.25,-165.88"/>
<polygon fill="black" stroke="black" points="1931.77,-162.41 1921.56,-165.22 1931.3,-169.39 1931.77,-162.41"/>
</g>
<!-- gate -->
<g id="node15" class="node">
<title>gate</title>
<ellipse fill="white" stroke="black" stroke-dasharray="5,2" cx="1055" cy="-90" rx="27" ry="18"/>
<text xml:space="preserve" text-anchor="middle" x="1055" y="-84.95" font-family="Times,serif" font-size="14.00">gate</text>
</g>
<!-- temporal_component_gate&#45;&gt;gate -->
<g id="edge21" class="edge">
<title>temporal_component_gate&#45;&gt;gate</title>
<path fill="none" stroke="black" d="M1202.99,-145.89C1170.33,-136.12 1127.8,-122.53 1091,-108 1089.47,-107.4 1087.92,-106.76 1086.36,-106.1"/>
<polygon fill="black" stroke="black" points="1088.06,-103.03 1077.5,-102.15 1085.21,-109.42 1088.06,-103.03"/>
</g>
<!-- mean -->
<g id="node16" class="node">
<title>mean</title>
<ellipse fill="white" stroke="black" stroke-dasharray="5,2" cx="1131" cy="-90" rx="31.39" ry="18"/>
<text xml:space="preserve" text-anchor="middle" x="1131" y="-84.95" font-family="Times,serif" font-size="14.00">mean</text>
</g>
<!-- temporal_component_mean&#45;&gt;mean -->
<g id="edge23" class="edge">
<title>temporal_component_mean&#45;&gt;mean</title>
<path fill="none" stroke="black" d="M1696.57,-156.07C1541.94,-148.38 1267.58,-131.9 1171,-108 1169,-107.5 1166.97,-106.92 1164.94,-106.28"/>
<polygon fill="black" stroke="black" points="1166.27,-103.04 1155.68,-102.87 1163.86,-109.61 1166.27,-103.04"/>
</g>
<!-- spatial_component_mean -->
<g id="node13" class="node">
<title>spatial_component_mean</title>
<ellipse fill="white" stroke="black" stroke-dasharray="5,2" cx="930" cy="-162" rx="106.11" ry="18"/>
<text xml:space="preserve" text-anchor="middle" x="930" y="-156.95" font-family="Times,serif" font-size="14.00">spatial_component_mean</text>
</g>
<!-- spatial_component_mean&#45;&gt;mean -->
<g id="edge24" class="edge">
<title>spatial_component_mean&#45;&gt;mean</title>
<path fill="none" stroke="black" d="M980.06,-145.71C1012.03,-135.66 1054.23,-121.84 1091,-108 1092.75,-107.34 1094.53,-106.65 1096.33,-105.94"/>
<polygon fill="black" stroke="black" points="1097.25,-109.35 1105.19,-102.33 1094.61,-102.86 1097.25,-109.35"/>
</g>
<!-- spatial_component_gate -->
<g id="node14" class="node">
<title>spatial_component_gate</title>
<ellipse fill="white" stroke="black" stroke-dasharray="5,2" cx="520" cy="-162" rx="101" ry="18"/>
<text xml:space="preserve" text-anchor="middle" x="520" y="-156.95" font-family="Times,serif" font-size="14.00">spatial_component_gate</text>
</g>
<!-- spatial_component_gate&#45;&gt;gate -->
<g id="edge22" class="edge">
<title>spatial_component_gate&#45;&gt;gate</title>
<path fill="none" stroke="black" d="M599.52,-150.6C716.56,-135.28 930.68,-107.27 1017.22,-95.94"/>
<polygon fill="black" stroke="black" points="1017.6,-99.42 1027.06,-94.66 1016.69,-92.48 1017.6,-99.42"/>
</g>
<!-- obs -->
<g id="node18" class="node">
<title>obs</title>
<ellipse fill="grey" stroke="black" cx="1186" cy="-18" rx="27" ry="18"/>
<text xml:space="preserve" text-anchor="middle" x="1186" y="-12.95" font-family="Times,serif" font-size="14.00">obs</text>
</g>
<!-- gate&#45;&gt;obs -->
<g id="edge25" class="edge">
<title>gate&#45;&gt;obs</title>
<path fill="none" stroke="black" d="M1075.76,-77.91C1097.22,-66.44 1130.96,-48.41 1155.47,-35.32"/>
<polygon fill="black" stroke="black" points="1156.83,-38.55 1164,-30.75 1153.54,-32.38 1156.83,-38.55"/>
</g>
<!-- log_likelihood -->
<g id="node19" class="node">
<title>log_likelihood</title>
<ellipse fill="white" stroke="black" stroke-dasharray="5,2" cx="1076" cy="-18" rx="64.66" ry="18"/>
<text xml:space="preserve" text-anchor="middle" x="1076" y="-12.95" font-family="Times,serif" font-size="14.00">log_likelihood</text>
</g>
<!-- gate&#45;&gt;log_likelihood -->
<g id="edge28" class="edge">
<title>gate&#45;&gt;log_likelihood</title>
<path fill="none" stroke="black" d="M1060.08,-72.05C1062.32,-64.6 1065.01,-55.64 1067.53,-47.22"/>
<polygon fill="black" stroke="black" points="1070.86,-48.31 1070.38,-37.73 1064.16,-46.3 1070.86,-48.31"/>
</g>
<!-- mean&#45;&gt;obs -->
<g id="edge26" class="edge">
<title>mean&#45;&gt;obs</title>
<path fill="none" stroke="black" d="M1143.48,-73.12C1150.4,-64.31 1159.14,-53.18 1166.9,-43.31"/>
<polygon fill="black" stroke="black" points="1169.59,-45.56 1173.01,-35.53 1164.08,-41.23 1169.59,-45.56"/>
</g>
<!-- mean&#45;&gt;log_likelihood -->
<g id="edge29" class="edge">
<title>mean&#45;&gt;log_likelihood</title>
<path fill="none" stroke="black" d="M1118.52,-73.12C1111.96,-64.77 1103.75,-54.32 1096.3,-44.84"/>
<polygon fill="black" stroke="black" points="1099.06,-42.69 1090.13,-36.99 1093.56,-47.01 1099.06,-42.69"/>
</g>
<!-- rate -->
<g id="node17" class="node">
<title>rate</title>
<ellipse fill="white" stroke="black" cx="1207" cy="-90" rx="27" ry="18"/>
<text xml:space="preserve" text-anchor="middle" x="1207" y="-84.95" font-family="Times,serif" font-size="14.00">rate</text>
</g>
<!-- rate&#45;&gt;obs -->
<g id="edge27" class="edge">
<title>rate&#45;&gt;obs</title>
<path fill="none" stroke="black" d="M1201.92,-72.05C1199.62,-64.4 1196.85,-55.16 1194.27,-46.56"/>
<polygon fill="black" stroke="black" points="1197.7,-45.81 1191.47,-37.24 1190.99,-47.82 1197.7,-45.81"/>
</g>
<!-- rate&#45;&gt;log_likelihood -->
<g id="edge30" class="edge">
<title>rate&#45;&gt;log_likelihood</title>
<path fill="none" stroke="black" d="M1186.24,-77.91C1167.14,-67.7 1138.3,-52.29 1114.92,-39.8"/>
<polygon fill="black" stroke="black" points="1116.75,-36.8 1106.28,-35.18 1113.45,-42.98 1116.75,-36.8"/>
</g>
<!-- alpha_gate_decentered -->
<g id="node20" class="node">
<title>alpha_gate_decentered</title>
<ellipse fill="white" stroke="black" cx="111" cy="-315" rx="95.37" ry="18"/>
<text xml:space="preserve" text-anchor="middle" x="111" y="-309.95" font-family="Times,serif" font-size="14.00">alpha_gate_decentered</text>
</g>
<!-- alpha_gate_decentered&#45;&gt;alpha_gate -->
<g id="edge3" class="edge">
<title>alpha_gate_decentered&#45;&gt;alpha_gate</title>
<path fill="none" stroke="black" d="M140.52,-297.47C160.38,-286.34 186.69,-271.6 207.82,-259.77"/>
<polygon fill="black" stroke="black" points="209.38,-262.9 216.4,-254.96 205.96,-256.79 209.38,-262.9"/>
</g>
<!-- alpha_gate&#45;&gt;spatial_component_gate -->
<g id="edge20" class="edge">
<title>alpha_gate&#45;&gt;spatial_component_gate</title>
<path fill="none" stroke="black" d="M258.6,-221.26C269.83,-209.92 286.36,-195.51 304,-188 324.05,-179.46 369.96,-173.54 414.32,-169.61"/>
<polygon fill="black" stroke="black" points="414.37,-173.12 424.03,-168.78 413.77,-166.15 414.37,-173.12"/>
</g>
<!-- alpha_mean_decentered -->
<g id="node22" class="node">
<title>alpha_mean_decentered</title>
<ellipse fill="white" stroke="black" cx="325" cy="-315" rx="100.48" ry="18"/>
<text xml:space="preserve" text-anchor="middle" x="325" y="-309.95" font-family="Times,serif" font-size="14.00">alpha_mean_decentered</text>
</g>
<!-- alpha_mean_decentered&#45;&gt;alpha_mean -->
<g id="edge6" class="edge">
<title>alpha_mean_decentered&#45;&gt;alpha_mean</title>
<path fill="none" stroke="black" d="M335.21,-296.72C340.54,-287.69 347.18,-276.45 353.16,-266.32"/>
<polygon fill="black" stroke="black" points="356.01,-268.38 358.08,-257.99 349.98,-264.82 356.01,-268.38"/>
</g>
<!-- alpha_mean&#45;&gt;spatial_component_mean -->
<g id="edge19" class="edge">
<title>alpha_mean&#45;&gt;spatial_component_mean</title>
<path fill="none" stroke="black" d="M419.77,-230.76C514.1,-218.23 717.61,-191.2 837.15,-175.33"/>
<polygon fill="black" stroke="black" points="837.49,-178.82 846.95,-174.03 836.57,-171.88 837.49,-178.82"/>
</g>
<!-- beta_year_gate -->
<g id="node24" class="node">
<title>beta_year_gate</title>
<ellipse fill="white" stroke="black" cx="1186" cy="-315" rx="66.71" ry="18"/>
<text xml:space="preserve" text-anchor="middle" x="1186" y="-309.95" font-family="Times,serif" font-size="14.00">beta_year_gate</text>
</g>
<!-- beta_year_gate&#45;&gt;year_component_gate -->
<g id="edge7" class="edge">
<title>beta_year_gate&#45;&gt;year_component_gate</title>
<path fill="none" stroke="black" d="M1167.58,-297.47C1156.67,-287.67 1142.63,-275.07 1130.43,-264.12"/>
<polygon fill="black" stroke="black" points="1132.85,-261.59 1123.07,-257.52 1128.17,-266.8 1132.85,-261.59"/>
</g>
<!-- beta_year_mean -->
<g id="node25" class="node">
<title>beta_year_mean</title>
<ellipse fill="white" stroke="black" cx="1343" cy="-315" rx="71.82" ry="18"/>
<text xml:space="preserve" text-anchor="middle" x="1343" y="-309.95" font-family="Times,serif" font-size="14.00">beta_year_mean</text>
</g>
<!-- beta_year_mean&#45;&gt;year_component_mean -->
<g id="edge8" class="edge">
<title>beta_year_mean&#45;&gt;year_component_mean</title>
<path fill="none" stroke="black" d="M1335.81,-296.72C1332.2,-288.04 1327.73,-277.3 1323.64,-267.48"/>
<polygon fill="black" stroke="black" points="1326.91,-266.23 1319.84,-258.34 1320.45,-268.92 1326.91,-266.23"/>
</g>
<!-- beta_hour_gate -->
<g id="node26" class="node">
<title>beta_hour_gate</title>
<ellipse fill="white" stroke="black" cx="1994" cy="-315" rx="67.73" ry="18"/>
<text xml:space="preserve" text-anchor="middle" x="1994" y="-309.95" font-family="Times,serif" font-size="14.00">beta_hour_gate</text>
</g>
<!-- beta_hour_gate&#45;&gt;hour_component_gate -->
<g id="edge11" class="edge">
<title>beta_hour_gate&#45;&gt;hour_component_gate</title>
<path fill="none" stroke="black" d="M1953.07,-300.23C1921.94,-289.92 1877.95,-275.73 1839,-264.5 1829.31,-261.71 1819.02,-258.89 1808.92,-256.22"/>
<polygon fill="black" stroke="black" points="1810.08,-252.9 1799.52,-253.75 1808.31,-259.67 1810.08,-252.9"/>
</g>
<!-- beta_hour_mean -->
<g id="node27" class="node">
<title>beta_hour_mean</title>
<ellipse fill="white" stroke="black" cx="2153" cy="-315" rx="72.85" ry="18"/>
<text xml:space="preserve" text-anchor="middle" x="2153" y="-309.95" font-family="Times,serif" font-size="14.00">beta_hour_mean</text>
</g>
<!-- beta_hour_mean&#45;&gt;hour_component_mean -->
<g id="edge12" class="edge">
<title>beta_hour_mean&#45;&gt;hour_component_mean</title>
<path fill="none" stroke="black" d="M2159.96,-296.72C2163.45,-288.04 2167.78,-277.3 2171.73,-267.48"/>
<polygon fill="black" stroke="black" points="2174.92,-268.93 2175.41,-258.35 2168.43,-266.32 2174.92,-268.93"/>
</g>
<!-- beta_month_gate -->
<g id="node28" class="node">
<title>beta_month_gate</title>
<ellipse fill="white" stroke="black" cx="1574" cy="-315" rx="74.89" ry="18"/>
<text xml:space="preserve" text-anchor="middle" x="1574" y="-309.95" font-family="Times,serif" font-size="14.00">beta_month_gate</text>
</g>
<!-- beta_month_gate&#45;&gt;month_component_gate -->
<g id="edge9" class="edge">
<title>beta_month_gate&#45;&gt;month_component_gate</title>
<path fill="none" stroke="black" d="M1563.56,-296.72C1558.11,-287.69 1551.32,-276.45 1545.2,-266.32"/>
<polygon fill="black" stroke="black" points="1548.33,-264.73 1540.16,-257.98 1542.34,-268.35 1548.33,-264.73"/>
</g>
<!-- beta_month_mean -->
<g id="node29" class="node">
<title>beta_month_mean</title>
<ellipse fill="white" stroke="black" cx="1747" cy="-315" rx="80.01" ry="18"/>
<text xml:space="preserve" text-anchor="middle" x="1747" y="-309.95" font-family="Times,serif" font-size="14.00">beta_month_mean</text>
</g>
<!-- beta_month_mean&#45;&gt;month_component_mean -->
<g id="edge10" class="edge">
<title>beta_month_mean&#45;&gt;month_component_mean</title>
<path fill="none" stroke="black" d="M1789.08,-299.28C1822.04,-287.75 1868.19,-271.61 1904.23,-259.01"/>
<polygon fill="black" stroke="black" points="1905.35,-262.32 1913.64,-255.72 1903.04,-255.71 1905.35,-262.32"/>
</g>
</g>
</svg>
