<?xml version="1.0" encoding="UTF-8" standalone="no"?>
<!DOCTYPE svg PUBLIC "-//W3C//DTD SVG 1.1//EN"
 "http://www.w3.org/Graphics/SVG/1.1/DTD/svg11.dtd">
<!-- Generated by graphviz version 13.1.2 (0)
 -->
<!-- Pages: 1 -->
<svg width="628pt" height="332pt"
 viewBox="0.00 0.00 628.00 332.00" xmlns="http://www.w3.org/2000/svg" xmlns:xlink="http://www.w3.org/1999/xlink">
<g id="graph0" class="graph" transform="scale(1 1) rotate(0) translate(4 328)">
<polygon fill="white" stroke="none" points="-4,4 -4,-328 623.78,-328 623.78,4 -4,4"/>
<!-- beta_spatial -->
<g id="node1" class="node">
<title>beta_spatial</title>
<ellipse fill="white" stroke="black" cx="54.93" cy="-234" rx="54.93" ry="18"/>
<text xml:space="preserve" text-anchor="middle" x="54.93" y="-228.95" font-family="Times,serif" font-size="14.00">beta_spatial</text>
</g>
<!-- spatial_component -->
<g id="node9" class="node">
<title>spatial_component</title>
<ellipse fill="white" stroke="black" stroke-dasharray="5,2" cx="119.93" cy="-162" rx="81.04" ry="18"/>
<text xml:space="preserve" text-anchor="middle" x="119.93" y="-156.95" font-family="Times,serif" font-size="14.00">spatial_component</text>
</g>
<!-- beta_spatial&#45;&gt;spatial_component -->
<g id="edge4" class="edge">
<title>beta_spatial&#45;&gt;spatial_component</title>
<path fill="none" stroke="black" d="M70.34,-216.41C78.16,-207.99 87.82,-197.58 96.53,-188.2"/>
<polygon fill="black" stroke="black" points="98.92,-190.77 103.16,-181.07 93.79,-186.01 98.92,-190.77"/>
</g>
<!-- beta_hour -->
<g id="node2" class="node">
<title>beta_hour</title>
<ellipse fill="white" stroke="black" cx="201.93" cy="-306" rx="47.77" ry="18"/>
<text xml:space="preserve" text-anchor="middle" x="201.93" y="-300.95" font-family="Times,serif" font-size="14.00">beta_hour</text>
</g>
<!-- hour_component -->
<g id="node6" class="node">
<title>hour_component</title>
<ellipse fill="white" stroke="black" stroke-dasharray="5,2" cx="201.93" cy="-234" rx="73.87" ry="18"/>
<text xml:space="preserve" text-anchor="middle" x="201.93" y="-228.95" font-family="Times,serif" font-size="14.00">hour_component</text>
</g>
<!-- beta_hour&#45;&gt;hour_component -->
<g id="edge1" class="edge">
<title>beta_hour&#45;&gt;hour_component</title>
<path fill="none" stroke="black" d="M201.93,-287.7C201.93,-280.41 201.93,-271.73 201.93,-263.54"/>
<polygon fill="black" stroke="black" points="205.43,-263.62 201.93,-253.62 198.43,-263.62 205.43,-263.62"/>
</g>
<!-- beta_month -->
<g id="node3" class="node">
<title>beta_month</title>
<ellipse fill="white" stroke="black" cx="374.93" cy="-306" rx="54.93" ry="18"/>
<text xml:space="preserve" text-anchor="middle" x="374.93" y="-300.95" font-family="Times,serif" font-size="14.00">beta_month</text>
</g>
<!-- month_component -->
<g id="node7" class="node">
<title>month_component</title>
<ellipse fill="white" stroke="black" stroke-dasharray="5,2" cx="374.93" cy="-234" rx="81.04" ry="18"/>
<text xml:space="preserve" text-anchor="middle" x="374.93" y="-228.95" font-family="Times,serif" font-size="14.00">month_component</text>
</g>
<!-- beta_month&#45;&gt;month_component -->
<g id="edge2" class="edge">
<title>beta_month&#45;&gt;month_component</title>
<path fill="none" stroke="black" d="M374.93,-287.7C374.93,-280.41 374.93,-271.73 374.93,-263.54"/>
<polygon fill="black" stroke="black" points="378.43,-263.62 374.93,-253.62 371.43,-263.62 378.43,-263.62"/>
</g>
<!-- beta_year -->
<g id="node4" class="node">
<title>beta_year</title>
<ellipse fill="white" stroke="black" cx="546.93" cy="-306" rx="46.75" ry="18"/>
<text xml:space="preserve" text-anchor="middle" x="546.93" y="-300.95" font-family="Times,serif" font-size="14.00">beta_year</text>
</g>
<!-- year_component -->
<g id="node8" class="node">
<title>year_component</title>
<ellipse fill="white" stroke="black" stroke-dasharray="5,2" cx="546.93" cy="-234" rx="72.85" ry="18"/>
<text xml:space="preserve" text-anchor="middle" x="546.93" y="-228.95" font-family="Times,serif" font-size="14.00">year_component</text>
</g>
<!-- beta_year&#45;&gt;year_component -->
<g id="edge3" class="edge">
<title>beta_year&#45;&gt;year_component</title>
<path fill="none" stroke="black" d="M546.93,-287.7C546.93,-280.41 546.93,-271.73 546.93,-263.54"/>
<polygon fill="black" stroke="black" points="550.43,-263.62 546.93,-253.62 543.43,-263.62 550.43,-263.62"/>
</g>
<!-- scale -->
<g id="node5" class="node">
<title>scale</title>
<ellipse fill="white" stroke="black" cx="147.93" cy="-90" rx="29.34" ry="18"/>
<text xml:space="preserve" text-anchor="middle" x="147.93" y="-84.95" font-family="Times,serif" font-size="14.00">scale</text>
</g>
<!-- obs -->
<g id="node12" class="node">
<title>obs</title>
<ellipse fill="grey" stroke="black" cx="129.93" cy="-18" rx="27" ry="18"/>
<text xml:space="preserve" text-anchor="middle" x="129.93" y="-12.95" font-family="Times,serif" font-size="14.00">obs</text>
</g>
<!-- scale&#45;&gt;obs -->
<g id="edge10" class="edge">
<title>scale&#45;&gt;obs</title>
<path fill="none" stroke="black" d="M143.58,-72.05C141.63,-64.49 139.29,-55.37 137.09,-46.85"/>
<polygon fill="black" stroke="black" points="140.51,-46.07 134.63,-37.25 133.73,-47.81 140.51,-46.07"/>
</g>
<!-- log_likelihood -->
<g id="node13" class="node">
<title>log_likelihood</title>
<ellipse fill="white" stroke="black" stroke-dasharray="5,2" cx="239.93" cy="-18" rx="64.66" ry="18"/>
<text xml:space="preserve" text-anchor="middle" x="239.93" y="-12.95" font-family="Times,serif" font-size="14.00">log_likelihood</text>
</g>
<!-- scale&#45;&gt;log_likelihood -->
<g id="edge12" class="edge">
<title>scale&#45;&gt;log_likelihood</title>
<path fill="none" stroke="black" d="M165.67,-75.5C178.01,-66.12 194.77,-53.36 209.25,-42.35"/>
<polygon fill="black" stroke="black" points="211.32,-45.17 217.16,-36.33 207.08,-39.6 211.32,-45.17"/>
</g>
<!-- temporal_component -->
<g id="node10" class="node">
<title>temporal_component</title>
<ellipse fill="white" stroke="black" stroke-dasharray="5,2" cx="341.93" cy="-162" rx="90.25" ry="18"/>
<text xml:space="preserve" text-anchor="middle" x="341.93" y="-156.95" font-family="Times,serif" font-size="14.00">temporal_component</text>
</g>
<!-- hour_component&#45;&gt;temporal_component -->
<g id="edge5" class="edge">
<title>hour_component&#45;&gt;temporal_component</title>
<path fill="none" stroke="black" d="M233.35,-217.29C252.89,-207.52 278.26,-194.84 299.56,-184.19"/>
<polygon fill="black" stroke="black" points="300.92,-187.42 308.3,-179.82 297.79,-181.16 300.92,-187.42"/>
</g>
<!-- month_component&#45;&gt;temporal_component -->
<g id="edge6" class="edge">
<title>month_component&#45;&gt;temporal_component</title>
<path fill="none" stroke="black" d="M366.78,-215.7C363.18,-208.07 358.87,-198.92 354.85,-190.4"/>
<polygon fill="black" stroke="black" points="358.07,-189.03 350.64,-181.47 351.74,-192.01 358.07,-189.03"/>
</g>
<!-- year_component&#45;&gt;temporal_component -->
<g id="edge7" class="edge">
<title>year_component&#45;&gt;temporal_component</title>
<path fill="none" stroke="black" d="M505.45,-218.83C474.2,-208.16 431.06,-193.43 396.93,-181.78"/>
<polygon fill="black" stroke="black" points="398.22,-178.52 387.63,-178.6 395.96,-185.15 398.22,-178.52"/>
</g>
<!-- loc -->
<g id="node11" class="node">
<title>loc</title>
<ellipse fill="white" stroke="black" stroke-dasharray="5,2" cx="230.93" cy="-90" rx="27" ry="18"/>
<text xml:space="preserve" text-anchor="middle" x="230.93" y="-84.95" font-family="Times,serif" font-size="14.00">loc</text>
</g>
<!-- spatial_component&#45;&gt;loc -->
<g id="edge8" class="edge">
<title>spatial_component&#45;&gt;loc</title>
<path fill="none" stroke="black" d="M145.96,-144.59C162.78,-133.98 184.69,-120.17 202.04,-109.22"/>
<polygon fill="black" stroke="black" points="203.79,-112.25 210.39,-103.96 200.06,-106.33 203.79,-112.25"/>
</g>
<!-- temporal_component&#45;&gt;loc -->
<g id="edge9" class="edge">
<title>temporal_component&#45;&gt;loc</title>
<path fill="none" stroke="black" d="M315.63,-144.41C298.8,-133.8 276.97,-120.03 259.68,-109.13"/>
<polygon fill="black" stroke="black" points="261.71,-106.27 251.38,-103.9 257.98,-112.19 261.71,-106.27"/>
</g>
<!-- loc&#45;&gt;obs -->
<g id="edge11" class="edge">
<title>loc&#45;&gt;obs</title>
<path fill="none" stroke="black" d="M212.88,-76.49C197.46,-65.8 175.05,-50.27 157.41,-38.04"/>
<polygon fill="black" stroke="black" points="159.63,-35.32 149.42,-32.5 155.64,-41.08 159.63,-35.32"/>
</g>
<!-- loc&#45;&gt;log_likelihood -->
<g id="edge13" class="edge">
<title>loc&#45;&gt;log_likelihood</title>
<path fill="none" stroke="black" d="M233.16,-71.7C234.11,-64.32 235.24,-55.52 236.3,-47.25"/>
<polygon fill="black" stroke="black" points="239.74,-47.97 237.54,-37.61 232.8,-47.08 239.74,-47.97"/>
</g>
</g>
</svg>
